<?xml version="1.0" encoding="utf-8"?><!-- Uploaded to: SVG Repo, www.svgrepo.com, Generator: SVG Repo Mixer Tools -->
<svg width="800px" height="800px" viewBox="0 0 64 64" xmlns="http://www.w3.org/2000/svg" xmlns:xlink="http://www.w3.org/1999/xlink" aria-hidden="true" role="img" class="iconify iconify--emojione-monotone" preserveAspectRatio="xMidYMid meet"><path d="M20.519 59.717l7.027-7.2a20.87 20.87 0 0 1-6.904-2.87l-.123 10.07" fill="#000000"></path><path d="M43.481 4.284l-7.027 7.199a20.872 20.872 0 0 1 6.904 2.871l.123-10.07" fill="#000000"></path><path d="M11.484 36.454l-7.201 7.025l10.07-.122a20.872 20.872 0 0 1-2.869-6.903" fill="#000000"></path><path d="M52.516 27.547l7.199-7.027l-10.07.123a20.902 20.902 0 0 1 2.871 6.904" fill="#000000"></path><path d="M14.355 20.642l-10.07-.123l7.199 7.027a20.872 20.872 0 0 1 2.871-6.904" fill="#000000"></path><path d="M49.645 43.358l10.07.122l-7.199-7.026a20.902 20.902 0 0 1-2.871 6.904" fill="#000000"></path><path d="M27.546 11.483l-7.025-7.2l.121 10.07a20.888 20.888 0 0 1 6.904-2.87" fill="#000000"></path><path d="M36.454 52.517l7.027 7.199l-.123-10.069a20.891 20.891 0 0 1-6.904 2.87" fill="#000000"></path><path d="M14.751 43.962l-3.965 9.251l9.252-3.965a21.145 21.145 0 0 1-5.287-5.286" fill="#000000"></path><path d="M49.248 20.039l3.965-9.252l-9.251 3.965a21.145 21.145 0 0 1 5.286 5.287" fill="#000000"></path><path d="M11 32c0-1.278.133-2.524.352-3.741L2 31.999l9.351 3.74A21.034 21.034 0 0 1 11 32z" fill="#000000"></path><path d="M62 32l-9.354-3.741c.219 1.217.352 2.463.352 3.741c0 1.279-.133 2.525-.352 3.741L62 32" fill="#000000"></path><path d="M20.039 14.751l-9.252-3.965l3.965 9.252a21.116 21.116 0 0 1 5.287-5.287" fill="#000000"></path><path d="M43.962 49.248l9.251 3.965l-3.965-9.251a21.124 21.124 0 0 1-5.286 5.286" fill="#000000"></path><path d="M35.741 11.352L32.001 2l-3.742 9.352a21.072 21.072 0 0 1 3.74-.352c1.279 0 2.525.133 3.742.352" fill="#000000"></path><path d="M28.259 52.648L32.001 62l3.74-9.352a21.077 21.077 0 0 1-3.742.352c-1.277 0-2.523-.133-3.74-.352" fill="#000000"></path><path d="M31.999 13c-10.492 0-19 8.508-19 19c0 10.493 8.508 19 19 19c10.494 0 18.999-8.507 18.999-19c0-10.492-8.505-19-18.999-19m0 36c-9.374 0-17-7.626-17-17s7.626-17 17-17c9.374 0 16.999 7.626 16.999 17s-7.625 17-16.999 17" fill="#000000"></path><path d="M39.971 37.243c-5.137 3.583-10.834 3.562-15.939 0c-.615-.428-1.168.314-.752 1c1.556 2.563 4.697 4.845 8.722 4.845c4.023 0 7.164-2.282 8.721-4.845c.416-.685-.137-1.428-.752-1" fill="#000000"></path><path d="M29.004 31.336c.305.318.912-.268.795-.594c-1.178-3.238-2.951-4.857-4.725-4.857c-1.773 0-3.548 1.619-4.724 4.857c-.117.326.49.912.795.594c1.141-1.205 2.506-1.684 3.929-1.684c1.424 0 2.791.479 3.93 1.684" fill="#000000"></path><path d="M38.924 25.885c-1.771 0-3.547 1.619-4.725 4.857c-.117.326.492.912.795.594c1.141-1.205 2.506-1.684 3.93-1.684c1.426 0 2.791.479 3.932 1.684c.305.318.91-.268.795-.594c-1.178-3.238-2.952-4.857-4.727-4.857" fill="#000000"></path></svg>